<?xml version="1.0" encoding="UTF-8" standalone="no"?> <svg width="64" height="64" viewBox="0 0 64 64" fill="none" xmlns="http://www.w3.org/2000/svg">
<path d="M32.0001 25C31.3731 25 30.7602 25.1859 30.2389 25.5342C29.7176 25.8826 29.3113 26.3777 29.0714 26.9569C28.8315 27.5361 28.7687 28.1735 28.891 28.7884C29.0133 29.4034 29.3152 29.9682 29.7586 30.4115C30.2019 30.8549 30.7667 31.1568 31.3816 31.2791C31.9966 31.4014 32.6339 31.3386 33.2132 31.0987C33.7924 30.8588 34.2875 30.4525 34.6358 29.9312C34.9842 29.4099 35.1701 28.797 35.1701 28.17C35.1701 27.3293 34.8361 26.523 34.2416 25.9285C33.6471 25.334 32.8408 25 32.0001 25Z" fill="black"/>
<path d="M47.7401 18.7402C44.4031 18.724 41.1851 19.979 38.7401 22.2502C36.6541 21.1469 34.33 20.5701 31.9701 20.5701C29.6103 20.5701 27.2862 21.1469 25.2001 22.2502C22.7552 19.979 19.5372 18.724 16.2001 18.7402C13.741 18.7537 11.3341 19.4507 9.2484 20.7534C7.16265 22.0561 5.48026 23.9131 4.38921 26.117C3.29817 28.3208 2.84148 30.7846 3.07016 33.2331C3.29885 35.6816 4.2039 38.0182 5.68419 39.9819C7.16447 41.9456 9.16167 43.459 11.4526 44.3529C13.7435 45.2468 16.2378 45.4861 18.6569 45.0439C21.0759 44.6018 23.3244 43.4956 25.1509 41.8491C26.9775 40.2026 28.3102 38.0806 29.0001 35.7202C30.9763 36.1573 33.024 36.1573 35.0001 35.7202C35.6943 38.0813 37.0318 40.2026 38.8629 41.8467C40.6941 43.4909 42.9467 44.593 45.3686 45.0297C47.7905 45.4665 50.2862 45.2206 52.5763 44.3196C54.8665 43.4186 56.8607 41.8981 58.3358 39.9282C59.8109 37.9583 60.7087 35.6168 60.9287 33.1657C61.1487 30.7145 60.6822 28.2505 59.5815 26.0494C58.4808 23.8483 56.7892 21.997 54.6962 20.7026C52.6031 19.4082 50.1911 18.7218 47.7301 18.7202L47.7401 18.7402ZM16.2601 43.2602C13.2738 43.2602 10.4098 42.0739 8.29812 39.9622C6.18646 37.8506 5.00014 34.9866 5.00014 32.0002C5.00014 29.0139 6.18646 26.1499 8.29812 24.0382C10.4098 21.9265 13.2738 20.7402 16.2601 20.7402C18.9049 20.7268 21.468 21.6556 23.4901 23.3602C23.2001 23.5802 22.9101 23.8002 22.6301 24.0402C20.9196 22.6747 18.8148 21.8962 16.6274 21.8201C14.4399 21.7439 12.2861 22.3741 10.4847 23.6174C8.68334 24.8606 7.33013 26.6509 6.62542 28.7231C5.92071 30.7953 5.90196 33.0393 6.57192 35.123C7.24189 37.2067 8.56498 39.0193 10.3453 40.2925C12.1257 41.5657 14.2687 42.2318 16.4571 42.1922C18.6455 42.1527 20.763 41.4095 22.4961 40.0728C24.2293 38.736 25.486 36.8768 26.0801 34.7702C26.4001 34.9102 26.7301 35.0502 27.0801 35.1702C26.3872 37.5034 24.9601 39.5508 23.0108 41.0083C21.0615 42.4657 18.694 43.2555 16.2601 43.2602ZM23.2601 32.0002C23.2601 32.2654 23.1548 32.5198 22.9672 32.7073C22.7797 32.8949 22.5254 33.0002 22.2601 33.0002C21.9949 33.0002 21.7406 32.8949 21.553 32.7073C21.3655 32.5198 21.2601 32.2654 21.2601 32.0002C21.2601 30.6741 20.7334 29.4024 19.7957 28.4647C18.858 27.527 17.5862 27.0002 16.2601 27.0002C15.9949 27.0002 15.7406 26.8949 15.553 26.7073C15.3655 26.5198 15.2601 26.2654 15.2601 26.0002C15.2601 25.735 15.3655 25.4806 15.553 25.2931C15.7406 25.1056 15.9949 25.0002 16.2601 25.0002C18.1115 25.0081 19.8842 25.7491 21.1905 27.061C22.4968 28.3729 23.2302 30.1489 23.2301 32.0002H23.2601ZM26.4601 32.7002C26.4601 32.4702 26.4601 32.2402 26.4601 32.0002C26.4606 29.5986 25.6103 27.2745 24.0601 25.4402C26.2865 23.5856 29.0925 22.57 31.9901 22.57C34.8878 22.57 37.6938 23.5856 39.9201 25.4402C38.3736 27.2759 37.5269 29.5999 37.5301 32.0002C37.5301 32.2402 37.5301 32.4702 37.5301 32.7002C35.8013 33.5427 33.9033 33.9805 31.9801 33.9805C30.057 33.9805 28.159 33.5427 26.4301 32.7002H26.4601ZM47.7401 43.2602C45.3079 43.2533 42.9428 42.4626 40.9955 41.0053C39.0482 39.548 37.6226 37.5018 36.9301 35.1702C37.2701 35.0502 37.6001 34.9102 37.9301 34.7702C38.531 36.8787 39.7945 38.7377 41.5339 40.0723C43.2733 41.407 45.396 42.1463 47.5882 42.1808C49.7803 42.2154 51.9253 41.5435 53.7059 40.2644C55.4865 38.9853 56.8081 37.1671 57.4752 35.0786C58.1422 32.9902 58.1193 30.7425 57.4098 28.6681C56.7004 26.5936 55.342 24.8027 53.5357 23.5602C51.7294 22.3176 49.5711 21.6895 47.3802 21.7688C45.1892 21.848 43.0819 22.6304 41.3701 24.0002C41.0901 23.7602 40.8001 23.5402 40.5101 23.3202C42.5323 21.6156 45.0954 20.6868 47.7401 20.7002C50.7265 20.7002 53.5905 21.8865 55.7022 23.9982C57.8138 26.1099 59.0001 28.9739 59.0001 31.9602C59.0001 34.9466 57.8138 37.8106 55.7022 39.9222C53.5905 42.0339 50.7265 43.2202 47.7401 43.2202V43.2602ZM46.7301 26.0002C46.7301 25.735 46.8355 25.4806 47.023 25.2931C47.2106 25.1056 47.4649 25.0002 47.7301 25.0002C49.5867 25.0002 51.3671 25.7377 52.6799 27.0505C53.9926 28.3632 54.7301 30.1437 54.7301 32.0002C54.7301 32.2654 54.6248 32.5198 54.4372 32.7073C54.2497 32.8949 53.9954 33.0002 53.7301 33.0002C53.4649 33.0002 53.2106 32.8949 53.023 32.7073C52.8355 32.5198 52.7301 32.2654 52.7301 32.0002C52.7301 30.6741 52.2034 29.4024 51.2657 28.4647C50.328 27.527 49.0562 27.0002 47.7301 27.0002C47.4649 27.0002 47.2106 26.8949 47.023 26.7073C46.8355 26.5198 46.7301 26.2654 46.7301 26.0002Z" fill="black"/>
</svg>
